HIERARCHY
ROOT YT_rig_v001:Root
{
	OFFSET -2.573863 99.078728 -1.032762
	CHANNELS 6 Xposition Yposition Zposition Xrotation Yrotation Zrotation
	JOINT YT_rig_v001:IKJnt_Grp
	{
		OFFSET 0.000000 0.000000 0.000000
		CHANNELS 6 Xposition Yposition Zposition Xrotation Yrotation Zrotation
		JOINT YT_rig_v001:IKLegFrontR01_jnt
		{
			OFFSET -6.500005 -3.255150 10.015763
			CHANNELS 6 Xposition Yposition Zposition Xrotation Yrotation Zrotation
			JOINT YT_rig_v001:IKLegFrontR02_jnt
			{
				OFFSET -9.719193 -0.000015 5.172733
				CHANNELS 6 Xposition Yposition Zposition Xrotation Yrotation Zrotation
				JOINT YT_rig_v001:IKLegFrontR03_jnt
				{
					OFFSET 0.000000 -19.999985 0.000074
					CHANNELS 6 Xposition Yposition Zposition Xrotation Yrotation Zrotation
					JOINT YT_rig_v001:IKLegFrontR04_jnt
					{
						OFFSET 0.000000 -21.000038 0.000074
						CHANNELS 6 Xposition Yposition Zposition Xrotation Yrotation Zrotation
						End Site
						{
							OFFSET 0.000000 21.000038 -0.000018
						}
					}
				}
			}
		}
		JOINT YT_rig_v001:IKLegBackR01_jnt
		{
			OFFSET -6.500001 -3.255150 -11.802598
			CHANNELS 6 Xposition Yposition Zposition Xrotation Yrotation Zrotation
			JOINT YT_rig_v001:IKLegBackR02_jnt
			{
				OFFSET -9.719196 -0.000031 -5.185904
				CHANNELS 6 Xposition Yposition Zposition Xrotation Yrotation Zrotation
				JOINT YT_rig_v001:IKLegBackR03_jnt
				{
					OFFSET 0.000000 -20.000000 -0.000360
					CHANNELS 6 Xposition Yposition Zposition Xrotation Yrotation Zrotation
					JOINT YT_rig_v001:IKLegBackR04_jnt
					{
						OFFSET 0.000000 -20.999943 0.000347
						CHANNELS 6 Xposition Yposition Zposition Xrotation Yrotation Zrotation
						End Site
						{
							OFFSET 0.000000 20.999943 -0.000370
						}
					}
				}
			}
		}
		JOINT YT_rig_v001:IKLegFrontL01_jnt
		{
			OFFSET 6.498628 -3.255157 10.007559
			CHANNELS 6 Xposition Yposition Zposition Xrotation Yrotation Zrotation
			JOINT YT_rig_v001:IKLegFrontL02_jnt
			{
				OFFSET 9.737183 -0.000008 5.180938
				CHANNELS 6 Xposition Yposition Zposition Xrotation Yrotation Zrotation
				JOINT YT_rig_v001:IKLegFrontL03_jnt
				{
					OFFSET 0.000000 -19.993607 -0.505187
					CHANNELS 6 Xposition Yposition Zposition Xrotation Yrotation Zrotation
					JOINT YT_rig_v001:IKLegFrontL04_jnt
					{
						OFFSET 0.000000 -20.999950 0.017213
						CHANNELS 6 Xposition Yposition Zposition Xrotation Yrotation Zrotation
						End Site
						{
							OFFSET 0.000000 20.999943 -0.017233
						}
					}
				}
			}
		}
		JOINT YT_rig_v001:IKLegBackL01_jnt
		{
			OFFSET 6.500279 -3.255180 -11.808104
			CHANNELS 6 Xposition Yposition Zposition Xrotation Yrotation Zrotation
			JOINT YT_rig_v001:IKLegBackL02_jnt
			{
				OFFSET 9.735531 0.000000 -5.180398
				CHANNELS 6 Xposition Yposition Zposition Xrotation Yrotation Zrotation
				JOINT YT_rig_v001:IKLegBackL03_jnt
				{
					OFFSET 0.000000 -20.000000 -0.000086
					CHANNELS 6 Xposition Yposition Zposition Xrotation Yrotation Zrotation
					JOINT YT_rig_v001:IKLegBackL04_jnt
					{
						OFFSET 0.000000 -20.999985 0.000101
						CHANNELS 6 Xposition Yposition Zposition Xrotation Yrotation Zrotation
						End Site
						{
							OFFSET 0.000000 20.999985 -0.000093
						}
					}
				}
			}
		}
	}
}
MOTION
Frames: 7
Frame Time: 0.016667
-2.573863 99.078728 -1.032762 -0.000000 0.000000 -0.000000 0.000000 0.000000 0.000000 -0.000000 0.000000 -0.000000 -6.500005 -3.255150 10.015763 -0.000000 0.000000 -0.000000 -9.719193 -0.000015 5.172734 -0.000000 0.000000 -0.000000 0.000000 -19.999985 0.000075 -0.000000 0.000000 -0.000000 0.000000 -21.000034 0.000074 -0.000000 0.000000 0.000000 -6.500001 -3.255150 -11.802598 -0.000000 0.000000 -0.000000 -9.719196 -0.000031 -5.185904 0.000000 0.000000 -0.000000 0.000000 -20.000000 -0.000360 -0.000000 -0.000000 -0.000000 0.000000 -20.999947 0.000347 -0.000000 0.000000 0.000000 6.498628 -3.255157 10.007559 -0.000000 0.000000 -0.000000 9.737182 -0.000023 5.180937 -0.000000 0.000000 -0.000000 -0.000002 -19.993622 -0.505189 -0.000000 0.000000 -0.000000 -0.000002 -20.999954 0.017211 -0.000000 0.000000 -0.000000 6.500279 -3.255180 -11.808104 -0.000000 0.000000 -0.000000 9.735531 0.000000 -5.180398 -0.000000 0.000000 -0.000000 0.000000 -20.000000 -0.000086 -0.000000 0.000000 -0.000000 0.000000 -20.999989 0.000101 -0.000000 0.000000 -0.000000 
-2.573863 99.078728 -1.032762 -0.000000 0.000000 -0.000000 0.000000 0.000000 0.000000 -0.000000 0.000000 -0.000000 -6.500005 -3.255150 10.015763 -0.000000 0.000000 -0.000000 -9.719193 -0.000015 5.172734 -0.000000 0.000000 -0.000000 0.000000 -19.999985 0.000075 -0.000000 0.000000 -0.000000 0.000000 -21.000034 0.000074 -0.000000 0.000000 0.000000 -6.500001 -3.255150 -11.802598 -0.000000 0.000000 -0.000000 -9.719196 -0.000031 -5.185904 0.000000 0.000000 -0.000000 0.000000 -20.000000 -0.000360 -0.000000 -0.000000 -0.000000 0.000000 -20.999947 0.000347 -0.000000 0.000000 0.000000 6.498628 -3.255157 10.007559 -0.000000 0.000000 -0.000000 9.737182 -0.000023 5.180937 -0.000000 0.000000 -0.000000 -0.000002 -19.993622 -0.505189 -0.000000 0.000000 -0.000000 -0.000002 -20.999954 0.017211 -0.000000 0.000000 -0.000000 6.500279 -3.255180 -11.808104 -0.000000 0.000000 -0.000000 9.735531 0.000000 -5.180398 -0.000000 0.000000 -0.000000 0.000000 -20.000000 -0.000086 -0.000000 0.000000 -0.000000 0.000000 -20.999989 0.000101 -0.000000 0.000000 -0.000000 
-2.573863 96.372856 -1.032762 -0.000000 0.000000 -0.000000 0.000000 0.000000 0.000000 -0.000000 0.000000 -0.000000 -6.500005 -3.255150 10.015763 -0.000000 0.000000 -0.000000 -9.719192 -0.000011 5.172736 15.664426 -0.000000 0.000000 0.000003 -19.999979 0.000071 -31.681447 0.000000 -0.000001 -0.000002 -21.000034 0.000071 -0.000000 0.000000 0.000000 -6.500000 -3.255150 -11.802598 -0.000000 -0.000000 -0.000000 -9.719196 -0.000015 -5.185904 15.911919 0.000000 -0.000000 -0.000001 -19.999994 -0.000361 -31.088019 -0.000000 0.000000 0.000000 -20.999943 0.000344 -0.000001 -0.000000 0.000000 6.498628 -3.255157 10.007559 -0.000000 0.000000 -0.000000 9.737182 -0.000011 5.180934 16.683072 -0.000001 0.000000 -0.000001 -19.993599 -0.505189 -30.663663 0.000000 0.000000 -0.000001 -20.999958 0.017211 0.000001 -0.000000 -0.000000 6.500279 -3.255180 -11.808104 -0.000000 0.000000 -0.000000 9.735531 -0.000001 -5.180396 16.320669 0.000000 -0.000000 0.000000 -20.000004 -0.000087 -31.806743 0.000000 -0.000000 0.000000 -20.999985 0.000102 -0.000001 0.000000 -0.000000 
-2.573863 94.578728 -1.032762 -0.000000 0.000000 -0.000000 0.000000 0.000000 0.000000 -0.000000 0.000000 -0.000000 -6.500005 -3.255150 10.015763 -0.000000 0.000000 -0.000000 -9.719192 -0.000004 5.172739 27.820049 -0.000000 0.000001 0.000001 -19.999985 0.000066 -54.209620 0.000001 -0.000001 0.000000 -21.000038 0.000076 0.000002 -0.000000 -0.000000 -6.500001 -3.255150 -11.802598 -0.000001 0.000000 -0.000000 -9.719195 -0.000024 -5.185903 27.819222 -0.000000 -0.000000 0.000001 -19.999989 -0.000363 -54.208100 -0.000000 0.000001 0.000000 -20.999939 0.000346 0.000000 -0.000000 -0.000000 6.498628 -3.255157 10.007559 -0.000000 0.000000 -0.000000 9.737182 -0.000013 5.180930 27.148376 -0.000001 0.000000 -0.000002 -19.993599 -0.505187 -52.734040 0.000000 -0.000000 -0.000001 -20.999943 0.017213 0.000001 0.000000 0.000000 6.500279 -3.255180 -11.808104 -0.000000 0.000000 -0.000000 9.735531 0.000003 -5.180395 27.819757 0.000000 -0.000000 0.000000 -19.999990 -0.000093 -54.209101 0.000000 -0.000000 -0.000001 -20.999989 0.000098 0.000001 0.000000 -0.000000 
-2.573863 95.705780 -1.111646 -0.013814 0.000000 -0.000000 0.000000 0.000008 0.000000 -0.000000 0.000000 -0.000000 -6.500005 -3.255142 10.015763 -0.000000 0.000000 -0.000000 -9.719192 -0.000010 5.172741 29.216360 -0.000000 0.000001 -0.000001 -19.999975 0.000068 -47.659964 0.000000 -0.000001 0.000002 -21.000042 0.000076 0.000002 -0.000000 0.000000 -6.500001 -3.255150 -11.802598 -0.000001 0.000000 -0.000000 -9.719196 -0.000021 -5.185903 27.566710 -0.000001 -0.000000 0.000001 -20.000021 -0.000361 -52.674347 -0.000000 0.000001 -0.000000 -20.999943 0.000348 0.000000 0.000000 0.000000 6.498628 -3.255157 10.007559 -0.000000 0.000000 -0.000000 9.737182 -0.000017 5.180934 17.635830 -0.000001 0.000000 0.000000 -19.993610 -0.505189 -48.179253 -0.000000 -0.000000 -0.000002 -20.999954 0.017211 0.000002 -0.000000 0.000000 6.500279 -3.255180 -11.808104 -0.000000 0.000000 -0.000000 9.735531 0.000010 -5.180396 24.052281 -0.000000 0.000000 0.000000 -20.000004 -0.000085 -47.026952 -0.000000 0.000000 0.000000 -20.999977 0.000102 0.000001 -0.000000 -0.000000 
-2.573863 97.372627 -1.032762 -0.000000 0.000000 -0.000000 0.000000 0.000000 0.000000 -0.000000 0.000000 -0.000000 -6.500005 -3.255150 10.015763 -0.000000 0.000000 -0.000000 -9.719193 -0.000020 5.172737 27.569644 0.000000 0.000000 -0.000001 -19.999992 0.000076 -35.193035 0.000000 -0.000001 0.000000 -21.000042 0.000075 0.000001 -0.000000 -0.000000 -6.500001 -3.255150 -11.802598 -0.000001 0.000000 -0.000000 -9.719196 -0.000028 -5.185900 23.601527 -0.000001 -0.000000 0.000003 -20.000006 -0.000357 -44.672750 -0.000000 0.000001 0.000002 -20.999947 0.000349 0.000000 0.000000 -0.000000 6.498628 -3.255157 10.007559 -0.000000 0.000000 -0.000000 9.737182 -0.000013 5.180936 4.554615 0.000000 -0.000000 -0.000002 -19.993599 -0.505187 -36.721757 0.000000 -0.000000 -0.000001 -20.999954 0.017214 0.000002 0.000000 -0.000000 6.500279 -3.255180 -11.808104 -0.000000 0.000000 -0.000000 9.735531 0.000002 -5.180396 17.066927 0.000000 -0.000000 0.000000 -20.000002 -0.000086 -33.183282 0.000000 -0.000000 0.000000 -20.999981 0.000104 -0.000001 0.000000 -0.000000 
-2.573863 97.480240 -0.480573 0.081521 0.000000 -0.000000 0.000000 0.000000 0.000000 -0.000000 0.000000 -0.000000 -6.500005 -3.255157 10.015763 -0.000000 0.000000 -0.000000 -9.719193 -0.000012 5.172734 29.070948 0.000000 0.000000 0.000003 -19.999971 0.000076 -36.967002 0.000000 -0.000001 -0.000000 -21.000042 0.000074 0.000001 0.000000 0.000000 -6.500001 -3.255157 -11.802597 -0.000001 0.000000 -0.000000 -9.719196 -0.000013 -5.185904 22.535507 -0.000000 -0.000000 -0.000001 -19.999996 -0.000361 -45.156133 -0.000000 0.000001 0.000000 -20.999954 0.000349 0.000000 -0.000000 -0.000000 6.498628 -3.255157 10.007559 -0.000000 0.000000 -0.000000 9.737182 -0.000012 5.180936 2.477537 0.000001 -0.000000 0.000000 -19.993599 -0.505191 -34.491373 0.000000 -0.000000 0.000000 -20.999947 0.017213 0.000001 0.000000 -0.000000 6.500279 -3.255188 -11.808103 -0.000000 0.000000 -0.000000 9.735531 0.000011 -5.180398 17.293429 0.000000 -0.000000 -0.000001 -19.999989 -0.000087 -32.221247 0.000000 -0.000000 0.000001 -20.999985 0.000104 0.000001 -0.000000 -0.000000 
